<?xml version="1.0" encoding="utf-8"?>
<!-- Generator: Adobe Illustrator 27.4.1, SVG Export Plug-In . SVG Version: 6.00 Build 0)  -->
<svg version="1.1" id="Layer_1" xmlns="http://www.w3.org/2000/svg" xmlns:xlink="http://www.w3.org/1999/xlink" x="0px" y="0px"
	 viewBox="0 0 59.78 24.05" style="enable-background:new 0 0 59.78 24.05;" xml:space="preserve">
<style type="text/css">
	.st0{fill:#FBBF16;}
	.st1{fill:#FBCC18;}
	.st2{fill:none;stroke:#414042;stroke-width:0.18;stroke-miterlimit:10;}
	.st3{fill:none;stroke:#000000;stroke-width:0.18;stroke-miterlimit:10;}
</style>
<g>
	<g>
		<path d="M1.49,12.86c0-0.42,0.06-0.81,0.19-1.17c0.13-0.36,0.31-0.66,0.55-0.92c0.24-0.26,0.52-0.46,0.85-0.61
			c0.33-0.14,0.7-0.22,1.11-0.22h4.2c0.41,0,0.78,0.07,1.11,0.22s0.62,0.35,0.85,0.61c0.24,0.26,0.42,0.57,0.55,0.92
			c0.13,0.36,0.19,0.75,0.19,1.17c0,0.42-0.06,0.82-0.19,1.18s-0.31,0.67-0.55,0.92c-0.24,0.26-0.52,0.46-0.85,0.6
			s-0.7,0.22-1.11,0.22H6.65v3.7h4.38v0.62H1.55v-0.62h4.38v-3.7H4.19c-0.41,0-0.78-0.07-1.11-0.22c-0.33-0.14-0.62-0.34-0.85-0.6
			c-0.24-0.26-0.42-0.56-0.55-0.92C1.55,13.68,1.49,13.28,1.49,12.86z M2.21,12.86c0,0.31,0.04,0.61,0.13,0.88s0.21,0.52,0.37,0.73
			s0.37,0.37,0.62,0.5c0.25,0.12,0.54,0.19,0.86,0.19h4.2c0.33,0,0.62-0.06,0.86-0.19s0.45-0.29,0.62-0.5
			c0.16-0.21,0.29-0.45,0.37-0.73s0.13-0.57,0.13-0.88s-0.04-0.61-0.13-0.88s-0.21-0.52-0.37-0.73c-0.16-0.21-0.37-0.37-0.62-0.5
			C9,10.63,8.71,10.57,8.39,10.57h-4.2c-0.33,0-0.62,0.06-0.86,0.19c-0.25,0.12-0.45,0.29-0.62,0.5c-0.16,0.21-0.29,0.45-0.37,0.73
			S2.21,12.55,2.21,12.86z M6.29,14.12c-0.02-0.47-0.13-0.8-0.31-0.97c-0.18-0.18-0.47-0.27-0.86-0.29
			c0.39-0.02,0.68-0.11,0.86-0.29c0.18-0.18,0.29-0.5,0.31-0.97c0.02,0.47,0.13,0.8,0.31,0.97c0.18,0.18,0.47,0.27,0.87,0.29
			c-0.4,0.02-0.69,0.11-0.87,0.29C6.41,13.32,6.31,13.65,6.29,14.12z"/>
		<path d="M22.19,14.19v0.62h-9.48v-0.62H22.19z M13.55,12.33h8.58v0.62h-9.3V9.94h0.72V12.33z M12.83,17.67h8.52V16.6h-8.52v-0.62
			h9.24v2.32h-8.52v1.18h8.64v0.62h-9.36V17.67z"/>
		<path d="M23.87,19.47h6.96v0.62h-6.96V19.47z M23.93,12.88c0-0.44,0.07-0.85,0.2-1.22c0.13-0.37,0.33-0.69,0.61-0.97
			s0.62-0.49,1.03-0.64c0.42-0.16,0.9-0.23,1.46-0.23c0.56,0,1.05,0.08,1.46,0.23c0.42,0.16,0.76,0.37,1.03,0.64
			s0.47,0.59,0.61,0.97c0.13,0.37,0.2,0.78,0.2,1.22v1.15c0,0.44-0.07,0.85-0.2,1.22c-0.13,0.37-0.33,0.69-0.61,0.97
			s-0.62,0.49-1.03,0.64c-0.42,0.16-0.9,0.23-1.46,0.23c-0.56,0-1.05-0.08-1.46-0.23c-0.42-0.16-0.76-0.37-1.03-0.64
			s-0.47-0.59-0.61-0.97c-0.13-0.37-0.2-0.78-0.2-1.22V12.88z M27.23,16.47c0.44,0,0.82-0.06,1.15-0.18s0.6-0.29,0.8-0.5
			s0.36-0.47,0.47-0.77s0.16-0.62,0.16-0.98v-1.15c0-0.36-0.05-0.69-0.16-0.98c-0.1-0.3-0.26-0.55-0.47-0.77
			c-0.21-0.22-0.48-0.38-0.8-0.5c-0.33-0.12-0.71-0.18-1.15-0.18c-0.45,0-0.83,0.06-1.16,0.18c-0.32,0.12-0.59,0.29-0.8,0.5
			c-0.21,0.22-0.36,0.47-0.47,0.77c-0.1,0.3-0.16,0.62-0.16,0.98v1.15c0,0.36,0.05,0.69,0.16,0.98s0.26,0.55,0.47,0.77
			c0.21,0.22,0.47,0.38,0.8,0.5S26.78,16.47,27.23,16.47z M27.23,14.68c-0.02-0.47-0.13-0.8-0.31-0.97
			c-0.18-0.18-0.47-0.27-0.86-0.29c0.39-0.02,0.68-0.11,0.86-0.29c0.18-0.18,0.29-0.5,0.31-0.97c0.02,0.47,0.13,0.8,0.31,0.97
			c0.18,0.18,0.47,0.27,0.87,0.29c-0.4,0.02-0.69,0.11-0.87,0.29C27.35,13.89,27.25,14.21,27.23,14.68z M32.51,9.94h0.72V20.1h-0.72
			V9.94z"/>
		<path d="M42.93,20.1h-0.72l-1.86-9.53l-1.86,9.53h-0.72l1.98-10.15h1.2L42.93,20.1z M44.37,14.2V9.94h0.72V20.1h-0.72v-5.27h-1.9
			V14.2H44.37z M46.41,9.94h0.72V20.1h-0.72V9.94z"/>
		<path d="M51.81,10.54V9.46h0.72v1.08h3v0.62h-6.72v-0.62H51.81z M48.99,14.06c0-0.3,0.05-0.59,0.15-0.85
			c0.1-0.26,0.24-0.49,0.43-0.68s0.4-0.34,0.66-0.45c0.26-0.11,0.54-0.16,0.86-0.16h2.16c0.32,0,0.61,0.05,0.86,0.16
			s0.48,0.26,0.66,0.45s0.33,0.42,0.43,0.68c0.1,0.26,0.15,0.54,0.15,0.85c0,0.3-0.05,0.59-0.15,0.85c-0.1,0.26-0.24,0.49-0.43,0.68
			s-0.4,0.34-0.66,0.45s-0.54,0.16-0.86,0.16h-2.16c-0.32,0-0.61-0.05-0.86-0.16c-0.26-0.11-0.48-0.26-0.66-0.45
			s-0.33-0.42-0.43-0.68C49.04,14.65,48.99,14.36,48.99,14.06z M49.89,19.47h8.52v0.62h-9.24v-2.78h0.72V19.47z M49.71,14.06
			c0,0.19,0.03,0.38,0.08,0.56c0.06,0.18,0.14,0.34,0.25,0.48c0.11,0.14,0.25,0.25,0.43,0.34c0.17,0.09,0.38,0.13,0.62,0.13h2.16
			c0.24,0,0.45-0.04,0.62-0.13c0.17-0.09,0.31-0.2,0.43-0.34c0.11-0.14,0.2-0.3,0.25-0.48c0.06-0.18,0.08-0.37,0.08-0.56
			s-0.03-0.38-0.08-0.56c-0.06-0.18-0.14-0.34-0.25-0.48c-0.11-0.14-0.25-0.25-0.43-0.34s-0.38-0.13-0.62-0.13h-2.16
			c-0.24,0-0.45,0.04-0.62,0.13s-0.31,0.2-0.43,0.34c-0.11,0.14-0.2,0.3-0.25,0.48C49.74,13.68,49.71,13.87,49.71,14.06z
			 M57.57,14.41v-1.79H55.8V12h1.78V9.94h0.72v7.75h-0.72v-2.66H55.8v-0.62H57.57z"/>
	</g>
	<line class="st3" x1="9.63" y1="22.53" x2="49.5" y2="22.53"/>
	<path class="st0" d="M57.3,1.6c-0.36-0.36-0.78-0.62-1.23-0.8c0.66,1.44,0.47,3.11-0.61,4.22c-1.08,1.11-2.76,1.33-4.21,0.7
		c0.19,0.44,0.46,0.86,0.83,1.21c1.47,1.44,3.83,1.42,5.27-0.05C58.79,5.4,58.77,3.04,57.3,1.6z"/>
	<line class="st2" x1="9.54" y1="23.2" x2="49.41" y2="23.2"/>
</g>
</svg>
